<svg xmlns="http://www.w3.org/2000/svg" id="Layer_1" width="360" height="360" viewBox="0 0 360 360"><style>.st0{fill:#fff}</style><path d="M59.6 359.2c-9.6-4.6-11.1-13-3.5-20.6 7.3-7.3 14.6-14.7 22-21.9 1.8-1.8 1.8-2.8.1-4.8-20.8-23.1-33.2-50.1-37-81-3.4-28.4 1.4-55.4 14-80.8 13-26.4 32.6-47 58.2-61.7 18-10.4 37.3-16.6 57.9-18.5 2.4-.2 3.3-1.2 3.1-3.5-.1-.7-.1-1.4 0-2.1.8-5.3-.8-8.7-5.8-11.8-9.6-6.1-13.3-19.4-9.8-30.7 3.6-11.5 13.9-19.3 25.7-19.5 13.3-.2 24.6 7.7 28 19.7 3.7 12.9-1.2 25.6-13 32.7-2 1.2-2.7 2.5-2.7 4.7-.1 9.9-.1 9.8 9.7 11.2 27.2 4 51.5 14.7 72.4 32.5 29.1 24.7 46.4 56.1 50.7 93.9 4.8 42.4-6.9 80.2-34.8 112.7-4.7 5.4-4.8 3.5.3 8.8 6.6 6.7 13.3 13.3 19.9 20 7.6 7.8 6.2 15.9-3.4 20.7h-7c-3.2-1.4-5.6-3.7-8-6.1-6.8-6.8-13.7-13.5-20.4-20.5-2.3-2.4-3.7-2.4-6.3-.5-14.6 10.8-30.9 18.2-48.5 22.8-7.7 2-15.7 2.9-23.6 4.2h-25.1c-3.7-.5-7.3-1-11-1.6-22.4-3.7-42.8-12-61.2-25.3-2.6-1.9-4.2-1.6-6.4.7C87.2 340.1 80 347 73 354.1c-2.1 2.1-4.3 3.9-7 5.1h-6.4zM186 325.1c58.9 1 112.3-48.2 111.1-113.3-1.1-60.4-52.1-110.4-115-108.5-57 1.7-108.9 49.1-107.6 113.4 1.2 61.1 52.3 109.4 111.5 108.4z" class="st0"/><path d="M342 97.6c.2 4.4-.9 8.3-3.1 11.8-2.8 4.6-6.3 8.7-10 12.5-4.2 4.3-10.5 4.5-15.1.6-16.9-14.1-33.9-28.2-50.7-42.4-6.1-5.1-6.6-11.6-1.6-17.8 2.3-2.8 4.6-5.5 7.1-8.1 8.7-9.1 21.6-10 31.4-2 11.1 9.1 22.2 18.3 33.3 27.4 5.6 4.8 8.9 10.7 8.7 18zm-312.5.3c-.2-6.6 2.1-12.1 6.7-16.2 11.9-10.6 24-21.1 36.9-30.7 8.9-6.7 22.9-6.5 32.8 6.5 1.5 1.9 3 3.8 4.5 5.8 4.2 5.4 3.7 12-1.6 16.4-14.6 12.2-29.2 24.4-43.8 36.7-2.4 2-4.8 4.1-7.2 6-5.2 4.1-11.6 3.8-16-1-3-3.3-5.8-6.9-8.4-10.6-2.8-4-4.2-8.4-3.9-12.9zM168.8 214c0-6.2 2.7-11 8-14.1 2.1-1.3 2.7-2.8 2.7-5.1-.1-15.1-.1-30.2 0-45.3 0-2.1-.5-3.7-1.9-5.3-4.4-4.8-4.2-12.1.2-16.4 4.3-4.2 11.5-4.2 15.8-.1 4.6 4.5 4.9 11.4.5 16.3-1.4 1.6-2.1 3.1-2.1 5.3.1 15.1.1 30.2 0 45.3 0 2.5.5 4.2 2.9 5.3 2.6 1.2 4.4 3.5 5.6 6 1 2 2.4 2.5 4.5 2.5 11.4-.1 22.8-.1 34.1 0 2.3 0 3.8-.6 5.4-2.3 4.6-4.8 12.2-4.5 16.8.4 4 4.3 3.7 11.9-.6 16.1-4.6 4.5-12.1 4.3-16.5-.6-1.3-1.4-2.6-2-4.5-2-11.5.1-23 .1-34.5 0-2.5 0-3.6 1.2-4.8 3.1-4 6.4-10 9-17.3 7.9-6.8-1-11.5-5.1-13.7-11.8-.6-1.7-.6-3.5-.6-5.2z" class="st0"/></svg>