<svg xmlns="http://www.w3.org/2000/svg"><symbol id="watch" viewBox="0 0 360 360"><style>.st0,.st1{fill:#fff}.st1{stroke:#fff;stroke-miterlimit:10}</style><path d="M236.3.2c4.2 16.9 8.3 33.8 12.5 50.6 1.9 7.6 3.8 15.1 5.9 23.9-20.5-11.6-41.3-17.8-64-17.8-22.6 0-43.5 6.1-63 17.3-.9-1.7-.2-2.9.1-4.1 5.5-22.2 11.1-44.4 16.6-66.6.3-1.1.5-2.3.7-3.4 30.5.1 60.9.1 91.2.1z" class="st0"/><path d="M190.7 67.2c31 0 57.6 11 79.5 32.6 18.4 18.1 29.4 40.3 32.3 66.1 4 36.1-6.5 67.5-32 93.4-18.1 18.4-40.3 29.6-66.2 32.1-46.6 4.6-83-13.1-109-51.9-6.8-10.2-11.3-21.5-14-33.4-.6-2.8-1.7-4-4.7-3.7-3.4.2-6.8.1-10.2 0-5.8-.2-10.4-4.7-10.5-10.5-.1-8.1-.1-16.1 0-24.2.1-6 4.7-10.5 10.8-10.6 3.3-.1 6.6-.2 9.8 0 2.9.2 4.1-.9 4.7-3.7 4-17 11.6-32.3 22.9-45.6 19.2-22.6 43.4-36.1 72.9-39.9 4.6-.6 9.1-.5 13.7-.7zm.2 201.6c48.3.9 88.5-40.2 89.1-87.8.7-49.5-40.5-90.1-88.3-90.5-49.1-.5-90.3 40.7-90.2 89.4.1 48.6 40.9 89.9 89.4 88.9z" class="st0"/><path d="M254.7 285c-2.3 9.2-4.3 17.5-6.4 25.7-3.7 14.8-7.5 29.6-11.1 44.5-.8 3.4-2.2 4.4-5.7 4.4-27.3-.1-54.7-.1-82 0-3.2 0-4.5-1-5.3-4-5.4-22.2-11-44.4-16.6-66.6-.3-1.1-.6-2.2-.3-3.6 42.4 23.1 84.5 23.1 127.4-.4z" class="st0"/><path d="M192 209.1c-2.3.1-4.2-.9-5.9-2.5l-28.8-28.8c-3.7-3.7-3.8-8-.5-11.3 3.2-3.3 7.7-3.3 11.4.3 7.1 6.9 14.1 13.9 21 21 2 2 3.1 2.1 5.2.1 11.7-11.9 23.5-23.7 35.4-35.4 5-5 11.9-3.6 13.7 2.7.9 3 0 5.5-2.1 7.6-14.7 14.8-29.4 29.5-44.1 44.2-1.5 1.3-3.3 2.1-5.3 2.1z" class="st1"/></symbol><symbol id="wallclock" viewBox="0 0 360 360"><style>.st0{fill:#fff}</style><path d="M359 179.7c-.1 99-80.6 179.3-179.6 179.2C80.8 358.9.2 278.8.3 179.8.3 80.4 80.1 0 180 .2c99.5.3 178.8 80.5 179 179.5zM187.7 46.3s-.1 0 0 0c-.1 4.2.1 8.4-.1 12.6-.2 4.2-3.3 7.2-7.1 7.5-4.1.4-7.6-2.2-8.5-6.4-.3-1.5-.3-3.2-.4-4.8 0-6.5-.2-13 0-19.6.1-3.4-.9-4.5-4.5-4.2-20.8 1.3-40.1 7.4-58.3 17.2-28.1 15.2-49.1 37.5-63.3 66.1-8.1 16.4-12.5 33.9-14.4 52.1-.4 3.4.8 4.7 4.3 4.6 6.5-.2 13-.1 19.6 0 5.2.1 8.9 3.8 8.8 8.3-.1 4.5-3.5 7.7-8.7 7.8-6.2.2-12.5 0-18.7 0-5 0-5.7.8-5.2 5.5 2.7 25.2 10.7 48.6 24.9 69.7 15 22.3 34.7 39.1 58.7 50.9 16.4 8.1 33.9 12.6 52.1 14.2 3.4.3 4.7-.8 4.6-4.3-.2-6.8-.1-13.6 0-20.4.1-5.6 3.3-8.9 8.1-8.9 4.6 0 7.9 3.6 8 9 .1 6.1 0 12.2 0 18.3 0 6.6 0 6.6 6.4 6.2.6 0 1.2 0 1.7-.1 25.8-3.3 49.4-12 70.6-27.2 21.6-15.6 38.1-35.6 49-59.8 6.7-14.8 11.2-30.4 12.1-46.8.4-6.4.6-6.3-5.8-6.4-6.2 0-12.5.1-18.7-.1-4.8-.2-7.8-3.6-7.8-7.8s3.2-7.6 7.6-8.1c1.3-.2 2.6-.1 3.9-.1 5.8 0 11.6-.1 17.4 0 3 .1 3.9-.9 3.6-4.1-1.1-15.5-4.8-30.2-10.7-44.5-9.2-22.5-23.3-41.3-41.6-57C261.7 54 246.1 45.2 229 39.2c-12.3-4.3-25-7.2-38.2-7.8-2.7-.1-3.3.9-3.2 3.2.1 3.9.1 7.8.1 11.7z" class="st0"/><path d="M179 200.5c-5-.2-9.5-2.7-12.3-7.8-1.2-2.2-2.8-3.5-5-4.4-22.8-9-45.5-18.1-68.2-27.2-2.2-.9-4.3-1.7-6.4-2.8-4.6-2.3-6.3-6.4-4.6-10.7 1.6-4.1 6.1-5.9 10.9-4 9.3 3.6 18.6 7.4 27.9 11.1 15.1 6 30.2 11.9 45.2 17.9 2.1.8 3.7.9 5.7-.3 4-2.5 8.3-2.5 12.6-1 2.8 1 5.3.9 7.9-.3 19.7-8.5 39.3-17 59-25.5 4.5-2 9-3.9 13.6-5.8 5.1-2.1 9.7-.4 11.6 4.1 1.7 4 0 8.4-4.9 10.6-9.4 4.2-18.9 8.1-28.3 12.2-15.2 6.5-30.3 13.1-45.5 19.6-2.4 1-3.8 2.8-4.8 5.2-2.2 5.8-7.4 9.1-14.4 9.1z" class="st0"/></symbol><symbol id="clock" viewBox="0 0 360 360"><style>.st0{fill:#fff}</style><path d="M59.6 359.2c-9.6-4.6-11.1-13-3.5-20.6 7.3-7.3 14.6-14.7 22-21.9 1.8-1.8 1.8-2.8.1-4.8-20.8-23.1-33.2-50.1-37-81-3.4-28.4 1.4-55.4 14-80.8 13-26.4 32.6-47 58.2-61.7 18-10.4 37.3-16.6 57.9-18.5 2.4-.2 3.3-1.2 3.1-3.5-.1-.7-.1-1.4 0-2.1.8-5.3-.8-8.7-5.8-11.8-9.6-6.1-13.3-19.4-9.8-30.7 3.6-11.5 13.9-19.3 25.7-19.5 13.3-.2 24.6 7.7 28 19.7 3.7 12.9-1.2 25.6-13 32.7-2 1.2-2.7 2.5-2.7 4.7-.1 9.9-.1 9.8 9.7 11.2 27.2 4 51.5 14.7 72.4 32.5 29.1 24.7 46.4 56.1 50.7 93.9 4.8 42.4-6.9 80.2-34.8 112.7-4.7 5.4-4.8 3.5.3 8.8 6.6 6.7 13.3 13.3 19.9 20 7.6 7.8 6.2 15.9-3.4 20.7h-7c-3.2-1.4-5.6-3.7-8-6.1-6.8-6.8-13.7-13.5-20.4-20.5-2.3-2.4-3.7-2.4-6.3-.5-14.6 10.8-30.9 18.2-48.5 22.8-7.7 2-15.7 2.9-23.6 4.2h-25.1c-3.7-.5-7.3-1-11-1.6-22.4-3.7-42.8-12-61.2-25.3-2.6-1.9-4.2-1.6-6.4.7C87.2 340.1 80 347 73 354.1c-2.1 2.1-4.3 3.9-7 5.1h-6.4zM186 325.1c58.9 1 112.3-48.2 111.1-113.3-1.1-60.4-52.1-110.4-115-108.5-57 1.7-108.9 49.1-107.6 113.4 1.2 61.1 52.3 109.4 111.5 108.4z" class="st0"/><path d="M342 97.6c.2 4.4-.9 8.3-3.1 11.8-2.8 4.6-6.3 8.7-10 12.5-4.2 4.3-10.5 4.5-15.1.6-16.9-14.1-33.9-28.2-50.7-42.4-6.1-5.1-6.6-11.6-1.6-17.8 2.3-2.8 4.6-5.5 7.1-8.1 8.7-9.1 21.6-10 31.4-2 11.1 9.1 22.2 18.3 33.3 27.4 5.6 4.8 8.9 10.7 8.7 18zm-312.5.3c-.2-6.6 2.1-12.1 6.7-16.2 11.9-10.6 24-21.1 36.9-30.7 8.9-6.7 22.9-6.5 32.8 6.5 1.5 1.9 3 3.8 4.5 5.8 4.2 5.4 3.7 12-1.6 16.4-14.6 12.2-29.2 24.4-43.8 36.7-2.4 2-4.8 4.1-7.2 6-5.2 4.1-11.6 3.8-16-1-3-3.3-5.8-6.9-8.4-10.6-2.8-4-4.2-8.4-3.9-12.9zM168.8 214c0-6.2 2.7-11 8-14.1 2.1-1.3 2.7-2.8 2.7-5.1-.1-15.1-.1-30.2 0-45.3 0-2.1-.5-3.7-1.9-5.3-4.4-4.8-4.2-12.1.2-16.4 4.3-4.2 11.5-4.2 15.8-.1 4.6 4.5 4.9 11.4.5 16.3-1.4 1.6-2.1 3.1-2.1 5.3.1 15.1.1 30.2 0 45.3 0 2.5.5 4.2 2.9 5.3 2.6 1.2 4.4 3.5 5.6 6 1 2 2.4 2.5 4.5 2.5 11.4-.1 22.8-.1 34.1 0 2.3 0 3.8-.6 5.4-2.3 4.6-4.8 12.2-4.5 16.8.4 4 4.3 3.7 11.9-.6 16.1-4.6 4.5-12.1 4.3-16.5-.6-1.3-1.4-2.6-2-4.5-2-11.5.1-23 .1-34.5 0-2.5 0-3.6 1.2-4.8 3.1-4 6.4-10 9-17.3 7.9-6.8-1-11.5-5.1-13.7-11.8-.6-1.7-.6-3.5-.6-5.2z" class="st0"/></symbol></svg>