<svg xmlns="http://www.w3.org/2000/svg"><symbol id="1-checkmark" viewBox="0 0 256 256"><circle cx="128" cy="127.3" r="128.4"/><path fill="#fff" d="M61.5 128.9l17.4-17.4 34.7 34.8 65.8-65.9 18.4 18.4-84 84-52.3-53.9z"/></symbol><symbol id="2-x" viewBox="0 0 256 256"><circle cx="127.5" cy="127.9" r="127.9"/><path fill="#fff" d="M68.5 84.9l17.3-17.3 40.3 40.3 40.7-40.6L184 84.5l-41.2 41.3 41.9 41.9-18.3 18.3-39-39.1-40.3 40.3-18.9-18.8 40.3-40.4s-40-45.1-40-43.1z"/></symbol><symbol id="3-bag" viewBox="0 0 256 256"><path d="M242.5 255.5H12.2L34 63.6l187.7-1.3 20.8 193.2z"/><path d="M86.7 85.6a8.1 8.1 0 0 0 0-2.2c-1.2-9.1-8.1-73.8 39-71.2 50.8 2.8 41.8 49.7 43.8 76.8h10.9s8.2-62.3-23.1-80.2c0 0-46.2-27.1-75.2 17.8a42.2 42.2 0 0 0-6.2 19c-.7 11.1-.7 40.7-.7 40.7h11.4z"/><circle cx="80.5" cy="88.1" r="9.5" fill="#fff"/><circle cx="175" cy="88.1" r="9.5" fill="#fff"/></symbol><symbol id="4-email" viewBox="0 0 256 256"><rect width="255.9" height="187.22" x="-.1" y="32.8" rx="15.5" ry="15.5"/><path fill="none" stroke="#fff" stroke-miterlimit="10" stroke-width="4" d="M1.5 33.8l97.9 92.4a23.1 23.1 0 0 0 9.7 5.4c7.8 2.2 22.1 4.7 37-.1a21.7 21.7 0 0 0 8.6-5l100.7-94"/><path fill="none" stroke="#fff" stroke-linecap="round" stroke-linejoin="round" stroke-width="4" d="M197.1 163.4l44.9 39.4m-224.6-3l40.2-41"/></symbol><symbol id="5-telephone" viewBox="0 0 256 256"><path d="M78.3 68.3h26.6v33.6h45v-34h22.9v55.4s90 38.3 80.4 132.8H.6s-8.4-83.5 75.6-137.4c0 0 2.1-48.4 2.1-50.4z"/><circle cx="124.2" cy="176.3" r="42" fill="#fff"/><path d="M34.4 45.4c-15 8.5-25 20.9-30.5 37.3C.1 94.2 0 102 5.5 114.4 19 144.8 70.2 97 74.1 85.1V55.3h109.2v30.4s26.3 46.1 48.8 41c17.8-4 32.7-28.5 17.2-58.2-6.9-13.3-18.8-23.4-32.5-29.6l-11.7-5.4a107.2 107.2 0 0 0-44.6-9.7h-59.8a107.4 107.4 0 0 0-52.8 13.9z"/></symbol><symbol id="6-toggle" viewBox="0 0 256 256"><path stroke="#fff" stroke-miterlimit="10" d="M-1.6-1.9h258v57.82h-258zm0 103.5h258v57.82h-258zm0 97.7h258v57.82h-258z"/></symbol><symbol id="7-trash" viewBox="0 0 256 256"><path d="M38.1 40.5h180.7c-.6 8.6 2.9 17.2-4.1 25.2-2.1 2.4-2.1 7.1-2.1 10.7q-.2 77.4-.1 154.7c0 16.9-7.5 24.5-24.7 24.5h-118c-16.6 0-24-7.7-24-24.4q-.1-76 0-152.3c0-6.5-1.7-11.9-4.9-17.7s-2-13.1-2.8-20.7zm83.7 42.8v127.1h15.5V83.3zm43.2-.1v127.4h15.2V83.2zm-82.1 0v127.4h15V83.2zm143.4-59.7v11.6H31.6V23.9h48.7C86.6 4.4 101.2-.3 119.3.7c9.8.6 19.8-.1 29.6.2 12.5.5 21.4 6.6 27.1 17.9a9.6 9.6 0 0 0 6.9 4.5c14.4.4 28.8.2 43.4.2zm-128-.4h60.8c-6-11-52.8-11.3-60.8 0z"/></symbol><symbol id="9-facebook-icon" viewBox="0 0 256 256"><path d="M150.1 257.4H92.6V130H65V85h26c.9-14.8.7-28.5 2.7-41.8 3.7-24.7 18.5-39.1 43.2-41.1 17.8-1.4 35.6-.2 54.4-.2v43.4c-8.4 0-16.7-.2-24.9 0-12.8.7-16 3.9-16.7 16.7-.2 5.7-.2 11.4 0 17.1.2 1.9.6 3.8 1.1 5.7h42l-5.3 44.8H150v127.8z"/></symbol><symbol id="10-twitter-icon" viewBox="0 0 256 256"><path d="M256 42.9c-4.3 2.6-17.2 7.7-29.3 9 7.7-4.5 19.2-19.2 22-30.9-7.4 5.1-24.5 12.6-33 12.6-9.6-10.8-23.1-17.6-38.1-17.6-29.2 0-52.8 25.5-52.8 56.9 0 4.4.5 8.6 1.4 12.7-39.6-1.1-85.8-22.4-111.9-59-16 29.9-2.2 63 16 75.1-6.2.5-17.7-.8-23.1-6.4-.4 19.8 8.5 46 40.7 55.6-6.2 3.6-17.2 2.6-22 1.8 1.7 16.8 23.4 38.6 47.2 38.6C64.7 201.8 35.8 221 0 214.8c24.3 16 52.6 25.2 82.6 25.2 85.2 0 151.4-74.4 147.8-166.1V72c7.7-5.7 18.1-15.8 25.6-29.1z"/></symbol></svg>