<svg xmlns="http://www.w3.org/2000/svg" id="Layer_1" viewBox="0 0 256 256" width="256" height="256"><style>.st0{fill:#231f20}.st1,.st2{fill:#fff;stroke:#231f20;stroke-width:1.5;stroke-linecap:round;stroke-linejoin:round;stroke-miterlimit:10}.st2{fill:none;stroke-width:.75}</style><path d="M27 112.8h-9.9v26.8h-7v-26.8H.3v-5.7H27v5.7zm71 26.9h-7v-8.4l.7-15.5-8.5 23.9h-4.8l-8.5-23.9.7 15.5v8.4h-7v-32.5h9.1l8 23.2 8-23.2H98v32.5zm27.6-5.6v5.6h-21.9v-32.5h21.9v5.7h-14.9v7.4h12.7v5.5h-12.7v8.3h14.9z" class="st0"/><path d="M34.4 112.5l7.5 6.9m10.4-8.8l-9.1 9.6" class="st1"/><circle cx="43" cy="120.6" r="2.7" class="st0"/><path d="M42.9 120.9l-3.8 11.8" class="st2"/><path d="M151.6 109c1.9.9 3.4 2.1 4.4 3.6 1 1.5 1.5 3.3 1.5 5.3s-.5 3.7-1.5 5.2-2.5 2.6-4.4 3.4c-1.9.8-4.2 1.2-6.8 1.2H139v10.7h-7.2v-30.8h13.1c2.6.1 4.8.5 6.7 1.4zm-2.6 12.2c.9-.8 1.3-1.9 1.3-3.2 0-.9-.2-1.7-.6-2.5-.4-.7-1-1.3-1.8-1.8s-1.8-.7-3-.7H139v9.3h5.9c1.8.1 3.2-.3 4.1-1.1zm13.6 17.3v-30.8h7.2v30.8h-7.2zm35.8-5.4v5.3h-22.6v-30.8h22.5v5.4H183v7h13v5.2h-13v7.9h15.4zm28.4.6c-1.1 1.6-2.7 2.9-4.6 3.8-2 .9-4.3 1.4-7 1.4-2.9 0-5.3-.6-7.4-1.8-2.1-1.2-3.7-2.9-4.8-5.2s-1.7-4.9-1.7-7.9v-1.9c0-3 .6-5.6 1.7-7.9 1.1-2.2 2.8-4 4.9-5.2s4.5-1.8 7.3-1.8c2.7 0 5.1.5 7 1.4 2 .9 3.5 2.2 4.5 3.9 1.1 1.6 1.7 3.5 1.9 5.7h-7.2c-.1-1.9-.7-3.2-1.7-4.2-1-.9-2.5-1.4-4.7-1.4s-3.9.8-5 2.3c-1.1 1.5-1.6 3.9-1.6 7.1v1.9c0 2.2.2 4 .7 5.3.4 1.4 1.1 2.4 2.1 3.1 1 .7 2.2 1 3.8 1 2.1 0 3.6-.4 4.6-1.3 1-.9 1.6-2.2 1.7-4h7.2c0 2.3-.6 4.1-1.7 5.7zm28.7-.6v5.3H233v-30.8h22.5v5.4h-15.3v7h13v5.2h-13v7.9h15.3z" class="st0"/></svg>