<svg xmlns="http://www.w3.org/2000/svg" id="Layer_1" viewBox="0 0 16 16" width="16" height="16"><style>.st0{fill:#231f20}.st1{stroke:#231f20;stroke-width:.15;stroke-linecap:round;stroke-linejoin:round;stroke-miterlimit:10}.st1,.st2{fill:#fff}.st2,.st3{stroke:#231f20;stroke-linecap:round;stroke-linejoin:round;stroke-miterlimit:10}.st2,.st3{stroke-width:.25}.st3{fill:none}</style><path d="M3.4 4.5H2.2v3.4h-.9V4.5H0v-.7h3.4v.7zm9.1 3.4h-.9v-1l.1-2-1.1 3H10l-1.1-3 .1 2V8h-.9V3.8h1.2l1 2.9 1-2.9h1.2v4.1zm3.5-.7v.7h-2.8V3.8H16v.7h-1.9v.9h1.6v.7h-1.6v1.1H16z" class="st0"/><path d="M4.5 4.1l1.2 1.1" class="st1"/><path d="M7.3 3.7L5.9 5.3" class="st2"/><circle cx="5.9" cy="5.4" r=".4" class="st0"/><path d="M5.8 5.4l-.6 1.9" class="st3"/><path d="M2.6 8.7c.3.1.4.3.6.5.1.2.2.4.2.7 0 .3-.1.5-.2.7-.1.2-.3.3-.6.4-.2.1-.5.2-.9.2H1v1.4H.1v-4h1.7c.3-.1.6 0 .8.1zm-.3 1.6c.1-.1.2-.2.2-.4 0-.1 0-.2-.1-.3 0-.1-.1-.2-.2-.2s-.3-.2-.5-.2H1v1.2h.8c.2 0 .4 0 .5-.1zM4 12.5v-4h.9v4H4zm4.6-.7v.7H5.7v-4h2.9v.7h-2v.9h1.7v.7H6.7v1h1.9zm3.7.1c-.1.2-.3.4-.6.5s-.6.2-.9.2c-.4 0-.7-.1-1-.2-.3-.2-.5-.4-.6-.7-.1-.4-.2-.7-.2-1.1v-.2c0-.4.1-.7.2-1 .1-.3.4-.5.6-.7.3-.2.6-.2.9-.2.4 0 .7.1.9.2.3.1.4.3.6.5.1.2.2.5.2.7h-.9c0-.2-.1-.4-.2-.5-.1-.1-.3-.2-.6-.2s-.5.1-.6.3c-.1.1-.2.4-.2.9v.2c0 .3 0 .5.1.7.1.2.1.3.3.4.1.1.3.1.5.1.3 0 .5-.1.6-.2s.2-.3.2-.5h.9c0 .3-.1.6-.2.8zm3.7-.1v.7h-2.9v-4H16v.7h-2v.9h1.7v.7H14v1h2z" class="st0"/></svg>