<svg xmlns="http://www.w3.org/2000/svg" id="Layer_1" viewBox="0 0 64 64" width="64" height="64"><style>.st0{fill:#231f20}.st1{stroke:#231f20;stroke-width:.5;stroke-linecap:round;stroke-linejoin:round;stroke-miterlimit:10}.st1,.st2{fill:#fff}.st2,.st3{stroke:#231f20;stroke-linecap:round;stroke-linejoin:round;stroke-miterlimit:10}.st2,.st3{stroke-width:.95}.st3{fill:none}</style><path d="M13.7 18.7h-5v13.7H5.1V18.7h-5v-2.9h13.5v2.9zm36.2 13.7h-3.6v-4.3l.4-7.9-4.3 12.2H40l-4.3-12.2.4 7.9v4.3h-3.6V15.9H37l4.1 11.8 4.1-11.8h4.7v16.5zm14-2.9v2.9H52.7V15.9h11.2v2.9h-7.6v3.8h6.5v2.8h-6.5v4.2h7.6z" class="st0"/><path d="M17.9 16.9l4.8 4.5" class="st1"/><path d="M29.4 15.7l-5.8 6.2" class="st2"/><circle cx="23.5" cy="22.2" r="1.7" class="st0"/><path d="M23.4 22.4L20.9 30" class="st3"/><path d="M10.4 35.5c1 .5 1.7 1.1 2.3 1.9.5.8.8 1.7.8 2.7 0 1-.3 1.9-.8 2.7-.5.8-1.3 1.3-2.3 1.8s-2.1.5-3.4.5H4v5.5H.2V34.8H7c1.3 0 2.5.2 3.4.7zm-1.3 6.2c.5-.4.7-1 .7-1.7 0-.5-.1-.9-.3-1.3s-.5-.7-.9-.9c-.4-.2-.9-.3-1.6-.3H4v4.8h3c.9.1 1.6-.1 2.1-.6zm7 8.9V34.8h3.7v15.8h-3.7zm18.4-2.7v2.8H23V34.8h11.6v2.8h-7.9v3.6h6.7v2.7h-6.7V48h7.8zm14.6.3c-.6.8-1.4 1.5-2.4 1.9-1 .5-2.2.7-3.6.7-1.5 0-2.7-.3-3.8-.9-1.1-.6-1.9-1.5-2.5-2.7-.6-1.1-.9-2.5-.9-4.1v-1c0-1.6.3-2.9.9-4.1.6-1.2 1.4-2 2.5-2.7 1.1-.6 2.3-.9 3.8-.9 1.4 0 2.6.2 3.6.7 1 .5 1.8 1.1 2.3 2 .6.8.9 1.8 1 2.9h-3.7c-.1-1-.4-1.7-.9-2.1-.5-.5-1.3-.7-2.4-.7-1.2 0-2 .4-2.6 1.2-.6.8-.8 2-.8 3.7v1c0 1.1.1 2 .3 2.7.2.7.6 1.2 1.1 1.6.5.3 1.2.5 2 .5 1.1 0 1.9-.2 2.4-.7.5-.4.8-1.1.9-2.1H50c0 1.3-.3 2.3-.9 3.1zm14.8-.3v2.8H52.3V34.8h11.6v2.8H56v3.6h6.7v2.7H56V48h7.9z" class="st0"/></svg>