<svg xmlns="http://www.w3.org/2000/svg" id="Layer_1" viewBox="0 0 32 32" width="32" height="32"><style>.st0{fill:#231f20}.st1{stroke:#231f20;stroke-width:.25;stroke-linecap:round;stroke-linejoin:round;stroke-miterlimit:10}.st1,.st2{fill:#fff}.st2,.st3{stroke:#231f20;stroke-linecap:round;stroke-linejoin:round;stroke-miterlimit:10}.st2,.st3{stroke-width:.5}.st3{fill:none}</style><path d="M6.9 9H4.3v6.8H2.6V9H.1V7.6h6.8V9zm18 6.8h-1.8v-2.1l.2-3.9-2.2 6.1h-1.2l-2.2-6.1.2 3.9v2.1h-1.8V7.6h2.3l2 5.9 2-5.9h2.3v8.2zm7-1.4v1.4h-5.6V7.6h5.6V9h-3.8v1.9h3.2v1.4h-3.2v2.1h3.8z" class="st0"/><path d="M8.9 8.1l2.4 2.2" class="st1"/><path d="M14.7 7.5l-2.9 3.1" class="st2"/><circle cx="11.7" cy="10.7" r=".9" class="st0"/><path d="M11.7 10.8l-1.3 3.8" class="st3"/><path d="M5.2 17.3c.5.2.9.5 1.1.9.3.4.4.9.4 1.4 0 .5-.1 1-.4 1.3-.3.4-.6.7-1.1.9s-1.1.3-1.7.3H2v2.7H.1V17h3.4c.6 0 1.2.1 1.7.3zm-.7 3.2c.2-.2.3-.5.3-.8 0-.2 0-.4-.1-.6-.1-.2-.3-.3-.5-.5s-.5-.2-.8-.2H2v2.4h1.5c.5 0 .8-.1 1-.3zM8 24.9V17h1.8v7.9H8zm9.2-1.4v1.4h-5.7V17h5.7v1.4h-3.9v1.8h3.3v1.3h-3.3v2h3.9zm7.3.2c-.3.4-.7.7-1.2 1s-1.1.3-1.8.3-1.4-.2-1.9-.5-.9-.8-1.2-1.3-.4-1.2-.4-2v-.5c0-.8.1-1.5.4-2 .3-.6.7-1 1.2-1.3.5-.3 1.2-.5 1.9-.5s1.3.1 1.8.4.9.6 1.2 1c.3.4.4.9.5 1.5h-1.8c0-.5-.2-.8-.4-1.1-.2-.2-.7-.4-1.2-.4-.6 0-1 .2-1.3.6-.3.4-.4 1-.4 1.8v.5c0 .6.1 1 .2 1.4s.3.6.5.8c.2.2.6.3 1 .3.5 0 .9-.1 1.2-.3s.4-.6.4-1H25c0 .4-.2.9-.5 1.3zm7.4-.2v1.4h-5.7V17h5.7v1.4H28v1.8h3.3v1.3H28v2h3.9z" class="st0"/></svg>