<svg xmlns="http://www.w3.org/2000/svg" id="Layer_1" viewBox="0 0 256 256" width="256" height="256"><style>.st0{fill:#231f20}.st1,.st2{fill:#fff}.st1,.st2,.st3{stroke:#231f20;stroke-linecap:round;stroke-linejoin:round;stroke-miterlimit:10}.st2,.st3{stroke-width:2}.st3{fill:none}</style><path d="M54.3 67.5H34.1v54.9H19.8V67.5h-20V56h54.5v11.5zm145.4 55h-14.4v-17.2l1.4-31.8-17.4 48.9h-9.7l-17.4-48.9 1.4 31.8v17.2h-14.3V56.1H148l16.4 47.4 16.4-47.4h18.8v66.4zm56.4-11.5v11.6h-44.9V56.1H256v11.6h-30.5v15.1h26V94h-26v17h30.6z" class="st0"/><path d="M70.9 60.2l19.6 18" class="st1"/><path d="M117.4 55.2L94 80.2" class="st2"/><circle cx="93.5" cy="81.4" r="6.9" class="st0"/><path d="M93.2 82.1l-10 30.5" class="st3"/><path d="M41.1 134.7c3.9 1.8 7 4.3 9.1 7.5 2.1 3.2 3.1 6.9 3.1 11s-1 7.6-3.1 10.7c-2.1 3.1-5.1 5.4-9 7.1s-8.6 2.5-14 2.5H15v22.1H.1V132h27.1c5.4 0 10 .9 13.9 2.7zM35.6 160c1.8-1.6 2.7-3.8 2.7-6.6 0-1.9-.4-3.6-1.2-5.1-.8-1.5-2-2.8-3.7-3.7-1.7-.9-3.8-1.4-6.2-1.4H15v19.3h12.2c3.8-.1 6.6-.9 8.4-2.5zm28.2 35.6V132h14.8v63.6H63.8zm74.2-11v11.1H91.5V132H138v11.1h-31.6v14.5h26.9v10.7h-26.9v16.3H138zm58.6 1.3c-2.3 3.4-5.5 6-9.6 7.8-4.1 1.9-8.9 2.8-14.4 2.8-5.9 0-11-1.2-15.3-3.7-4.3-2.5-7.6-6-9.9-10.7-2.3-4.6-3.4-10.1-3.4-16.3v-3.9c0-6.2 1.2-11.7 3.6-16.3 2.4-4.6 5.7-8.2 10-10.7s9.4-3.8 15.1-3.8c5.6 0 10.5 1 14.5 2.9s7.2 4.6 9.4 8c2.2 3.4 3.6 7.3 4 11.8h-14.8c-.3-3.8-1.4-6.7-3.4-8.6-2-1.9-5.2-2.8-9.7-2.8-4.6 0-8.1 1.6-10.3 4.7-2.2 3.1-3.4 8.1-3.4 14.8v4c0 4.5.5 8.2 1.4 11 .9 2.8 2.4 5 4.4 6.4s4.6 2.1 7.9 2.1c4.3 0 7.4-.9 9.5-2.7 2.1-1.8 3.3-4.6 3.6-8.3h14.8c-.4 4.3-1.7 8.1-4 11.5zm59.4-1.3v11.1h-46.5V132H256v11.1h-31.6v14.5h26.9v10.7h-26.9v16.3H256z" class="st0"/></svg>