<svg xmlns="http://www.w3.org/2000/svg" id="Layer_1" viewBox="0 0 16 16" width="16" height="16"><style>.st0{fill:#231f20}.st1,.st2{fill:#fff;stroke:#231f20;stroke-width:.15;stroke-linecap:round;stroke-linejoin:round;stroke-miterlimit:10}.st2{fill:none;stroke-width:5e-2}</style><path d="M3 7.4h-.5v1.3h-.3V7.4h-.5v-.3H3v.3zm3.6 1.3h-.4V7.5l-.4 1.2h-.2l-.4-1.2v1.2h-.3V7.1h.5l.4 1.2.4-1.2h.5v1.6zM8 8.4v.3H6.9V7.1H8v.3h-.8v.4h.6V8h-.6v.4H8z" class="st0"/><path d="M3.4 7.3l.4.4m.5-.4l-.5.4" class="st1"/><circle cx="3.8" cy="7.8" r=".1" class="st0"/><path d="M3.8 7.8l-.2.6" class="st2"/><path d="M9.3 7.2c.1 0 .2.1.2.2.1.1.1.2.1.3 0 .1 0 .2-.1.3-.1 0-.1 0-.2.1-.1 0-.2.1-.3.1h-.4v.5h-.3V7.1H9c.1 0 .2 0 .3.1zm-.2.6s.1-.1.1-.2v-.1s0-.1-.1-.1h-.5v.5h.3c.1-.1.2-.1.2-.1zm.7.8V7.1h.4v1.5h-.4zm1.8-.2v.3h-1.1V7.1h1.2v.3h-.8v.4h.7V8h-.7v.4h.7zm1.4 0l-.2.2c-.1 0-.2.1-.3.1-.1 0-.3 0-.4-.1-.1-.1-.2-.1-.2-.3-.1-.1-.1-.2-.1-.4v-.1c0-.2 0-.3.1-.4.1-.1.1-.2.2-.3.1-.1.2-.1.4-.1.1 0 .3 0 .4.1s.1.2.1.2c.1.1.1.2.1.3h-.4c0-.1 0-.2-.1-.2 0 0-.1-.1-.2-.1s-.2 0-.2.1c-.1.1-.1.2-.1.4v.4c0 .1.1.1.1.2 0 0 .1.1.2.1s.2 0 .2-.1c.1 0 .1-.1.1-.2h.4s0 .1-.1.2zm1.5 0v.3h-1.1V7.1h1.2v.3h-.8v.4h.7V8h-.7v.4h.7z" class="st0"/></svg>