<svg xmlns="http://www.w3.org/2000/svg" id="Layer_1" viewBox="0 0 64 64" width="64" height="64"><style>.st0{fill:#231f20}.st1,.st2{fill:#fff;stroke:#231f20;stroke-width:.25;stroke-linecap:round;stroke-linejoin:round;stroke-miterlimit:10}.st2{fill:none;stroke-width:.15}</style><path d="M8.7 29.3H6.3v6.3H4.7v-6.3H2.4V28h6.2v1.3zm16.7 6.3h-1.7v-2l.2-3.7-2 5.6h-1.1l-2-5.6.2 3.7v2h-1.6V28h2.2l1.9 5.5 1.9-5.5h2.2v7.6zm6.4-1.3v1.3h-5.1V28h5.1v1.3h-3.5V31h3v1.3h-3v2h3.5z" class="st0"/><path d="M10.4 29.2l1.8 1.6m2.4-2.1L12.5 31" class="st1"/><circle cx="12.4" cy="31.1" r=".6" class="st0"/><path d="M12.4 31.2l-.9 2.7" class="st2"/><path d="M38 28.4c.4.2.8.5 1 .9.2.4.4.8.4 1.2 0 .5-.1.9-.4 1.2-.2.3-.6.6-1 .8-.4.2-1 .3-1.6.3H35v2.5h-1.7v-7.2h3.1c.6 0 1.1.1 1.6.3zm-.7 2.8c.2-.2.3-.4.3-.8 0-.2 0-.4-.1-.6-.1-.2-.2-.3-.4-.4-.2-.1-.4-.2-.7-.2H35v2.2h1.4c.4.1.7 0 .9-.2zm3.2 4.1v-7.2h1.7v7.2h-1.7zM49 34v1.3h-5.3v-7.2H49v1.3h-3.6V31h3.1v1.2h-3.1V34H49zm6.6.2c-.3.4-.6.7-1.1.9-.5.2-1 .3-1.6.3-.7 0-1.3-.1-1.7-.4-.5-.3-.9-.7-1.1-1.2-.3-.5-.4-1.1-.4-1.9v-.4c0-.7.1-1.3.4-1.9.3-.5.6-.9 1.1-1.2.5-.3 1.1-.4 1.7-.4.6 0 1.2.1 1.7.3s.8.5 1.1.9c.3.4.4.8.5 1.3h-1.7c0-.4-.2-.8-.4-1-.2-.2-.6-.3-1.1-.3-.5 0-.9.2-1.2.5-.3.4-.4.9-.4 1.7v.5c0 .5.1.9.2 1.3.1.3.3.6.5.7.2.2.5.2.9.2.5 0 .8-.1 1.1-.3.2-.2.4-.5.4-.9h1.7c-.2.5-.3.9-.6 1.3zm6.8-.2v1.3h-5.3v-7.2h5.3v1.3h-3.6V31h3.1v1.2h-3.1V34h3.6z" class="st0"/></svg>