<svg xmlns="http://www.w3.org/2000/svg" id="Layer_1" viewBox="0 0 32 32" width="32" height="32"><style>.st0{fill:#231f20}.st1,.st2{fill:#fff;stroke:#231f20;stroke-width:.25;stroke-linecap:round;stroke-linejoin:round;stroke-miterlimit:10}.st2{fill:none;stroke-width:.15}</style><path d="M13.2 18.1h-.8v-.9l.1-1.7-.9 2.6h-.5l-.9-2.6.1 1.7v.9h-.8v-3.5h.9l.9 2.5.9-2.5h1v3.5zm2.9-.7v.6h-2.3v-3.5h2.4v.6h-1.6v.9H16v.6h-1.4v.9h1.5z" class="st0"/><path d="M8.3 14.9l-1 1.1" class="st1"/><circle cx="7.3" cy="16" r=".3" class="st0"/><path d="M7.3 16l-.5 1.3" class="st2"/><path d="M18.9 14.7c.2.1.4.2.5.4.1.2.2.4.2.6 0 .2-.1.4-.2.6-.1.2-.3.3-.5.4-.2.1-.4.1-.7.1h-.6v1.1h-.8v-3.3h1.4c.3 0 .5.1.7.1zm-.2 1.4c.1-.1.1-.2.1-.3 0-.1 0-.2-.1-.3 0-.1-.1-.1-.2-.2-.1 0-.2-.1-.3-.1h-.6v1h.6c.2 0 .4-.1.5-.1zm1.4 1.8v-3.3h.8v3.3h-.8zm3.9-.6v.6h-2.4v-3.3H24v.6h-1.6v.8h1.4v.6h-1.4v.8H24zm3 .1c-.1.2-.3.3-.5.4s-.4.2-.7.2c-.3 0-.6-.1-.8-.2-.2-.1-.4-.3-.5-.6s-.2-.5-.2-.8v-.2c0-.3.1-.6.2-.8.1-.2.3-.4.5-.6.2-.1.5-.2.8-.2.3 0 .5 0 .8.1.2.1.4.2.5.4s.2.4.2.6h-.8c0-.2-.1-.3-.2-.4-.1-.1-.3-.1-.5-.1s-.4.1-.5.2c-.1.2-.2.4-.2.8v.2c0 .2 0 .4.1.6 0 .1.1.3.2.3s.2.1.4.1.4 0 .5-.1c.1-.1.2-.2.2-.4h.8c-.1.1-.2.3-.3.5zm3.1-.1v.6h-2.4v-3.3h2.4v.6h-1.6v.8h1.4v.6h-1.4v.8h1.6z" class="st0"/></svg>