<svg xmlns="http://www.w3.org/2000/svg" id="Layer_1" width="360" height="360" viewBox="0 0 360 360"><style>.st0{fill:#fff}</style><path d="M359 179.7c-.1 99-80.6 179.3-179.6 179.2C80.8 358.9.2 278.8.3 179.8.3 80.4 80.1 0 180 .2c99.5.3 178.8 80.5 179 179.5zM187.7 46.3s-.1 0 0 0c-.1 4.2.1 8.4-.1 12.6-.2 4.2-3.3 7.2-7.1 7.5-4.1.4-7.6-2.2-8.5-6.4-.3-1.5-.3-3.2-.4-4.8 0-6.5-.2-13 0-19.6.1-3.4-.9-4.5-4.5-4.2-20.8 1.3-40.1 7.4-58.3 17.2-28.1 15.2-49.1 37.5-63.3 66.1-8.1 16.4-12.5 33.9-14.4 52.1-.4 3.4.8 4.7 4.3 4.6 6.5-.2 13-.1 19.6 0 5.2.1 8.9 3.8 8.8 8.3-.1 4.5-3.5 7.7-8.7 7.8-6.2.2-12.5 0-18.7 0-5 0-5.7.8-5.2 5.5 2.7 25.2 10.7 48.6 24.9 69.7 15 22.3 34.7 39.1 58.7 50.9 16.4 8.1 33.9 12.6 52.1 14.2 3.4.3 4.7-.8 4.6-4.3-.2-6.8-.1-13.6 0-20.4.1-5.6 3.3-8.9 8.1-8.9 4.6 0 7.9 3.6 8 9 .1 6.1 0 12.2 0 18.3 0 6.6 0 6.6 6.4 6.2.6 0 1.2 0 1.7-.1 25.8-3.3 49.4-12 70.6-27.2 21.6-15.6 38.1-35.6 49-59.8 6.7-14.8 11.2-30.4 12.1-46.8.4-6.4.6-6.3-5.8-6.4-6.2 0-12.5.1-18.7-.1-4.8-.2-7.8-3.6-7.8-7.8s3.2-7.6 7.6-8.1c1.3-.2 2.6-.1 3.9-.1 5.8 0 11.6-.1 17.4 0 3 .1 3.9-.9 3.6-4.1-1.1-15.5-4.8-30.2-10.7-44.5-9.2-22.5-23.3-41.3-41.6-57C261.7 54 246.1 45.2 229 39.2c-12.3-4.3-25-7.2-38.2-7.8-2.7-.1-3.3.9-3.2 3.2.1 3.9.1 7.8.1 11.7z" class="st0"/><path d="M179 200.5c-5-.2-9.5-2.7-12.3-7.8-1.2-2.2-2.8-3.5-5-4.4-22.8-9-45.5-18.1-68.2-27.2-2.2-.9-4.3-1.7-6.4-2.8-4.6-2.3-6.3-6.4-4.6-10.7 1.6-4.1 6.1-5.9 10.9-4 9.3 3.6 18.6 7.4 27.9 11.1 15.1 6 30.2 11.9 45.2 17.9 2.1.8 3.7.9 5.7-.3 4-2.5 8.3-2.5 12.6-1 2.8 1 5.3.9 7.9-.3 19.7-8.5 39.3-17 59-25.5 4.5-2 9-3.9 13.6-5.8 5.1-2.1 9.7-.4 11.6 4.1 1.7 4 0 8.4-4.9 10.6-9.4 4.2-18.9 8.1-28.3 12.2-15.2 6.5-30.3 13.1-45.5 19.6-2.4 1-3.8 2.8-4.8 5.2-2.2 5.8-7.4 9.1-14.4 9.1z" class="st0"/></svg>