<svg xmlns="http://www.w3.org/2000/svg" id="Layer_1" viewBox="0 0 360 360" width="360" height="360"><style>.st0,.st1{fill:#fff}.st1{stroke:#fff;stroke-miterlimit:10}</style><path d="M236.3.2c4.2 16.9 8.3 33.8 12.5 50.6 1.9 7.6 3.8 15.1 5.9 23.9-20.5-11.6-41.3-17.8-64-17.8-22.6 0-43.5 6.1-63 17.3-.9-1.7-.2-2.9.1-4.1 5.5-22.2 11.1-44.4 16.6-66.6.3-1.1.5-2.3.7-3.4 30.5.1 60.9.1 91.2.1z" class="st0"/><path d="M190.7 67.2c31 0 57.6 11 79.5 32.6 18.4 18.1 29.4 40.3 32.3 66.1 4 36.1-6.5 67.5-32 93.4-18.1 18.4-40.3 29.6-66.2 32.1-46.6 4.6-83-13.1-109-51.9-6.8-10.2-11.3-21.5-14-33.4-.6-2.8-1.7-4-4.7-3.7-3.4.2-6.8.1-10.2 0-5.8-.2-10.4-4.7-10.5-10.5-.1-8.1-.1-16.1 0-24.2.1-6 4.7-10.5 10.8-10.6 3.3-.1 6.6-.2 9.8 0 2.9.2 4.1-.9 4.7-3.7 4-17 11.6-32.3 22.9-45.6 19.2-22.6 43.4-36.1 72.9-39.9 4.6-.6 9.1-.5 13.7-.7zm.2 201.6c48.3.9 88.5-40.2 89.1-87.8.7-49.5-40.5-90.1-88.3-90.5-49.1-.5-90.3 40.7-90.2 89.4.1 48.6 40.9 89.9 89.4 88.9z" class="st0"/><path d="M254.7 285c-2.3 9.2-4.3 17.5-6.4 25.7-3.7 14.8-7.5 29.6-11.1 44.5-.8 3.4-2.2 4.4-5.7 4.4-27.3-.1-54.7-.1-82 0-3.2 0-4.5-1-5.3-4-5.4-22.2-11-44.4-16.6-66.6-.3-1.1-.6-2.2-.3-3.6 42.4 23.1 84.5 23.1 127.4-.4z" class="st0"/><path d="M192 209.1c-2.3.1-4.2-.9-5.9-2.5l-28.8-28.8c-3.7-3.7-3.8-8-.5-11.3 3.2-3.3 7.7-3.3 11.4.3 7.1 6.9 14.1 13.9 21 21 2 2 3.1 2.1 5.2.1 11.7-11.9 23.5-23.7 35.4-35.4 5-5 11.9-3.6 13.7 2.7.9 3 0 5.5-2.1 7.6-14.7 14.8-29.4 29.5-44.1 44.2-1.5 1.3-3.3 2.1-5.3 2.1z" class="st1"/></svg>